<svg fill="none" height="24" viewBox="0 0 24 24" width="24" xmlns="http://www.w3.org/2000/svg"><path d="m12 24c6.6274 0 12-5.3726 12-12 0-6.62742-5.3726-12-12-12-6.62742 0-12 5.37258-12 12 0 6.6274 5.37258 12 12 12z" fill="#8dc351"/><path d="m15.9049 7.90055c-.582-1.479-2.0415-1.6125-3.741-1.2825l-.6052-2.10975-1.284.36825.5895 2.055c-.3375.096-.681.2025-1.02228.3075l-.5925-2.0685-1.28325.3675.60375 2.10975c-.276.0855-.5475.1695-.81375.246l-.00225-.0075-1.7715.50775.39375 1.3725s.9435-.291.93225-.2685c.5205-.14925.77625.10425.9.351l.69 2.40305c.03525-.0098.0825-.0218.138-.03l-.13575.039.96525 3.3675c.024.1702.003.459-.36.564.02025.0097-.9345.267-.9345.267l.18525 1.6072 1.67103-.48c.3112-.0877.6187-.1702.9195-.255l.6127 2.1338 1.2825-.3675-.6052-2.1113c.344-.0913.687-.1863 1.029-.285l.6015 2.1023 1.2847-.3683-.6105-2.13c2.1233-.7432 3.4785-1.7205 3.0848-3.8025-.3165-1.6755-1.293-2.184-2.6033-2.127.636-.5925.9098-1.3935.4815-2.475zm-.4875 5.07755c.4575 1.5952-2.325 2.1967-3.195 2.4472l-.8107-2.8275c.87-.2497 3.528-1.2825 4.005.381zm-1.7415-3.81755c.4155 1.45125-1.9102 1.93505-2.6355 2.14275l-.735-2.56425c.7245-.20775 2.9363-1.09125 3.3705.42225z" fill="#fff"/></svg>