<?xml version="1.0" encoding="utf-8"?>
<!-- Generator: Adobe Illustrator 27.4.1, SVG Export Plug-In . SVG Version: 6.00 Build 0)  -->
<svg version="1.1" id="Layer_1" xmlns="http://www.w3.org/2000/svg" xmlns:xlink="http://www.w3.org/1999/xlink" x="0px" y="0px"
	 viewBox="0 0 90 131" style="enable-background:new 0 0 90 131;" xml:space="preserve">
<style type="text/css">
	.st0{fill:none;stroke:#BB9B52;}
	.st1{fill:#BB9B52;}
	.st2{fill:none;stroke:#EDC873;stroke-linejoin:bevel;stroke-miterlimit:10;}
	.st3{fill:none;stroke:#EDC873;stroke-miterlimit:10;}
	.st4{fill:none;stroke:#BB9B52;stroke-linejoin:bevel;}
	.st5{fill:none;stroke:#BB9B52;stroke-miterlimit:10;}
	.st6{fill:#161616;}
	.st7{fill:#898989;}
	.st8{fill:#FFFFFF;}
</style>
<path class="st0" d="M1,0.5H0.5V1v128v0.7l0.7-0.3L45,112.3l43.8,17.2l0.7,0.3V129V1V0.5H89H1z"/>
<path class="st4" d="M34.4,39.1l-3.8,9.8l6.8-2l3.7,5.9L45,41.7L49,52.8l3.7-5.9l6.8,2l-3.8-9.8"/>
<path class="st5" d="M60.9,26.6c-0.9-0.7-1-2-0.3-2.9l0,0c1-1.2,0.4-2.9-1.1-3.3l-0.1,0c-1.1-0.3-1.8-1.4-1.5-2.6l0,0
	c0.4-1.5-0.9-2.8-2.4-2.6h0c-1.2,0.2-2.3-0.6-2.4-1.7v0c-0.3-1.5-2-2.2-3.3-1.4l0,0c-1,0.6-2.3,0.3-3-0.6c-0.9-1.3-2.7-1.3-3.6,0
	l0,0c-0.6,1-2,1.2-3,0.6c-1.3-0.8-3-0.1-3.3,1.4v0c-0.2,1.1-1.3,1.9-2.5,1.7h0c-1.5-0.2-2.8,1.1-2.4,2.6l0,0.1
	c0.3,1.1-0.4,2.2-1.5,2.6h0c-1.5,0.4-2.1,2.2-1.1,3.4l0,0.1c0.7,0.9,0.6,2.2-0.3,2.9l0,0c-1.2,1-1,2.8,0.4,3.5l0.1,0
	c1,0.5,1.5,1.8,0.9,2.8l0,0c-0.7,1.4,0.3,3,1.8,3h0c1.2,0.1,2.1,1,2,2.2v0c-0.1,1.5,1.5,2.6,2.9,2.1h0c1.1-0.4,2.3,0.1,2.8,1.2v0
	c0.6,1.4,2.4,1.8,3.5,0.7l0,0c0.8-0.8,2.2-0.8,3,0c1.1,1.1,3,0.7,3.5-0.7l0,0c0.4-1.1,1.7-1.6,2.8-1.2c1.4,0.5,3-0.6,2.9-2.1v-0.1
	c-0.1-1.1,0.8-2.1,2-2.2h0c1.5-0.1,2.5-1.7,1.8-3l0-0.1c-0.5-1-0.1-2.3,0.9-2.8l0,0C61.9,29.4,62.1,27.6,60.9,26.6L60.9,26.6z
	 M45,39.3c-7.2,0-13-5.7-13-12.7c0-7,5.8-12.7,13-12.7c7.2,0,13,5.7,13,12.7C58,33.6,52.2,39.3,45,39.3L45,39.3z"/>
<path class="st5" d="M45,19.5l2.1,4.7l5.1,0.5L48.3,28l1.1,5L45,30.4L40.6,33l1.1-5l-3.8-3.4l5.1-0.5L45,19.5z"/>
<path class="st6" d="M8.4,62.3h2.2c1,0,1.7,0.1,2.2,0.4c0.5,0.3,0.7,0.8,0.7,1.5c0,0.3-0.1,0.6-0.2,0.8c-0.1,0.2-0.3,0.4-0.5,0.6
	c-0.2,0.2-0.5,0.3-0.8,0.3v0.1c0.3,0.1,0.6,0.2,0.9,0.3c0.3,0.1,0.5,0.3,0.6,0.6c0.2,0.3,0.2,0.6,0.2,1c0,0.5-0.1,0.9-0.3,1.2
	c-0.2,0.3-0.5,0.6-0.9,0.8c-0.4,0.2-0.9,0.3-1.5,0.3H8.4V62.3z M9.3,65.7h1.5c0.7,0,1.2-0.1,1.4-0.3c0.3-0.2,0.4-0.6,0.4-1
	c0-0.4-0.2-0.8-0.5-1c-0.3-0.2-0.8-0.3-1.5-0.3H9.3V65.7z M9.3,66.5v2.9h1.6c0.7,0,1.2-0.1,1.5-0.4c0.3-0.3,0.4-0.6,0.4-1.1
	c0-0.3-0.1-0.6-0.2-0.8c-0.1-0.2-0.3-0.4-0.6-0.5c-0.3-0.1-0.7-0.2-1.2-0.2H9.3z M19.9,70.2h-4.4v-7.9h4.4v0.8h-3.5v2.5h3.3v0.8
	h-3.3v2.9h3.5V70.2z M26.1,68.1c0,0.5-0.1,0.9-0.3,1.2c-0.2,0.3-0.6,0.6-1,0.7c-0.4,0.2-0.9,0.3-1.5,0.3c-0.3,0-0.6,0-0.8,0
	c-0.3,0-0.5-0.1-0.7-0.1c-0.2-0.1-0.4-0.1-0.6-0.2v-0.9c0.3,0.1,0.6,0.2,1,0.3c0.4,0.1,0.8,0.1,1.2,0.1c0.4,0,0.7-0.1,1-0.2
	c0.3-0.1,0.5-0.3,0.6-0.5c0.1-0.2,0.2-0.4,0.2-0.7c0-0.3-0.1-0.5-0.2-0.7c-0.1-0.2-0.3-0.3-0.6-0.5c-0.3-0.2-0.6-0.3-1.1-0.5
	c-0.3-0.1-0.6-0.2-0.9-0.4c-0.3-0.1-0.5-0.3-0.6-0.5c-0.2-0.2-0.3-0.4-0.4-0.6c-0.1-0.2-0.1-0.5-0.1-0.8c0-0.4,0.1-0.8,0.3-1.1
	c0.2-0.3,0.5-0.5,0.9-0.7c0.4-0.2,0.8-0.2,1.3-0.2c0.4,0,0.8,0,1.2,0.1c0.4,0.1,0.7,0.2,1,0.3l-0.3,0.8c-0.3-0.1-0.6-0.2-0.9-0.3
	c-0.3-0.1-0.6-0.1-1-0.1c-0.3,0-0.6,0.1-0.9,0.2c-0.2,0.1-0.4,0.2-0.5,0.4c-0.1,0.2-0.2,0.4-0.2,0.6c0,0.3,0.1,0.5,0.2,0.7
	c0.1,0.2,0.3,0.3,0.6,0.5c0.3,0.1,0.6,0.3,1,0.4c0.5,0.2,0.9,0.3,1.2,0.5c0.3,0.2,0.6,0.4,0.7,0.7C26,67.3,26.1,67.7,26.1,68.1z
	 M30.1,70.2h-0.9v-7h-2.5v-0.8h5.8v0.8h-2.5V70.2z M39,70.2h-0.9v-7h-2.5v-0.8h5.8v0.8H39V70.2z M44.8,62.3c0.6,0,1.2,0.1,1.6,0.2
	c0.4,0.2,0.7,0.4,0.9,0.7c0.2,0.3,0.3,0.7,0.3,1.2c0,0.4-0.1,0.8-0.2,1c-0.2,0.3-0.3,0.5-0.6,0.7c-0.2,0.2-0.5,0.3-0.8,0.4l2.2,3.5
	h-1.1l-1.9-3.3h-1.6v3.3h-0.9v-7.9H44.8z M44.7,63.1h-1.2v3h1.2c0.6,0,1.1-0.1,1.4-0.4c0.3-0.3,0.5-0.6,0.5-1.2
	c0-0.5-0.2-0.9-0.5-1.1C45.9,63.2,45.4,63.1,44.7,63.1z M54.4,70.2l-1-2.5h-3.1l-1,2.5h-0.9l3.1-7.9h0.8l3.1,7.9H54.4z M53.1,66.9
	l-0.9-2.5c0-0.1-0.1-0.2-0.1-0.3c0-0.1-0.1-0.3-0.1-0.5c-0.1-0.2-0.1-0.3-0.1-0.4c0,0.1-0.1,0.3-0.1,0.4c0,0.1-0.1,0.3-0.1,0.4
	c0,0.1-0.1,0.2-0.1,0.3l-0.9,2.5H53.1z M62.6,66.2c0,0.9-0.2,1.6-0.5,2.2c-0.3,0.6-0.8,1-1.4,1.3c-0.6,0.3-1.3,0.4-2.2,0.4h-2.1
	v-7.9h2.4c0.8,0,1.5,0.1,2.1,0.4c0.6,0.3,1,0.7,1.3,1.3C62.5,64.6,62.6,65.3,62.6,66.2z M61.7,66.2c0-0.7-0.1-1.3-0.4-1.7
	c-0.2-0.5-0.6-0.8-1-1c-0.5-0.2-1-0.3-1.7-0.3h-1.3v6.3h1.1c1.1,0,1.9-0.3,2.4-0.8C61.4,68.1,61.7,67.3,61.7,66.2z M64.4,70.2v-7.9
	h0.9v7.9H64.4z M73.6,70.2h-1.1l-4.3-6.6h0c0,0.2,0,0.4,0,0.6c0,0.2,0,0.5,0,0.7c0,0.3,0,0.5,0,0.8v4.5h-0.8v-7.9h1l4.3,6.6h0
	c0-0.1,0-0.3,0-0.5c0-0.2,0-0.5,0-0.7c0-0.3,0-0.5,0-0.7v-4.5h0.9V70.2z M79.1,66.1h2.7v3.8c-0.4,0.1-0.8,0.2-1.3,0.3
	c-0.4,0.1-0.9,0.1-1.5,0.1c-0.8,0-1.5-0.2-2.1-0.5c-0.6-0.3-1-0.8-1.3-1.4c-0.3-0.6-0.4-1.3-0.4-2.2c0-0.8,0.2-1.5,0.5-2.1
	c0.3-0.6,0.8-1.1,1.4-1.4c0.6-0.3,1.3-0.5,2.2-0.5c0.4,0,0.9,0,1.2,0.1c0.4,0.1,0.8,0.2,1.1,0.3l-0.3,0.8c-0.3-0.1-0.6-0.2-1-0.3
	c-0.3-0.1-0.7-0.1-1.1-0.1c-0.6,0-1.2,0.1-1.6,0.4c-0.5,0.3-0.8,0.6-1,1.1c-0.2,0.5-0.4,1.1-0.4,1.7c0,0.7,0.1,1.2,0.3,1.7
	c0.2,0.5,0.5,0.9,1,1.1c0.4,0.3,1,0.4,1.7,0.4c0.4,0,0.7,0,0.9-0.1c0.3,0,0.5-0.1,0.7-0.2v-2.4h-1.8V66.1z M22.1,82.2l-1-2.5H18
	l-1,2.5h-0.9l3.1-7.9H20l3.1,7.9H22.1z M20.9,78.9l-0.9-2.5c0-0.1-0.1-0.2-0.1-0.3c0-0.1-0.1-0.3-0.1-0.5c-0.1-0.2-0.1-0.3-0.1-0.4
	c0,0.1-0.1,0.3-0.1,0.4c0,0.1-0.1,0.3-0.1,0.4c0,0.1-0.1,0.2-0.1,0.3l-0.9,2.5H20.9z M27.5,75c-0.4,0-0.8,0.1-1.2,0.2
	c-0.3,0.1-0.6,0.4-0.9,0.6c-0.2,0.3-0.4,0.6-0.6,1c-0.1,0.4-0.2,0.8-0.2,1.3c0,0.7,0.1,1.2,0.3,1.7c0.2,0.5,0.5,0.9,0.9,1.1
	c0.4,0.3,0.9,0.4,1.5,0.4c0.4,0,0.7,0,1-0.1c0.3-0.1,0.6-0.1,0.9-0.2V82c-0.3,0.1-0.6,0.2-0.9,0.2c-0.3,0.1-0.7,0.1-1.1,0.1
	c-0.8,0-1.5-0.2-2-0.5c-0.5-0.3-0.9-0.8-1.2-1.4c-0.3-0.6-0.4-1.3-0.4-2.1c0-0.6,0.1-1.1,0.2-1.6c0.2-0.5,0.4-0.9,0.7-1.3
	c0.3-0.4,0.7-0.6,1.2-0.8c0.5-0.2,1-0.3,1.6-0.3c0.4,0,0.8,0,1.1,0.1c0.4,0.1,0.7,0.2,1,0.3l-0.4,0.8c-0.3-0.1-0.5-0.2-0.8-0.3
	C28.2,75.1,27.8,75,27.5,75z M34.4,75c-0.4,0-0.8,0.1-1.2,0.2c-0.3,0.1-0.6,0.4-0.9,0.6c-0.2,0.3-0.4,0.6-0.6,1
	c-0.1,0.4-0.2,0.8-0.2,1.3c0,0.7,0.1,1.2,0.3,1.7c0.2,0.5,0.5,0.9,0.9,1.1c0.4,0.3,0.9,0.4,1.5,0.4c0.4,0,0.7,0,1-0.1
	c0.3-0.1,0.6-0.1,0.9-0.2V82c-0.3,0.1-0.6,0.2-0.9,0.2c-0.3,0.1-0.7,0.1-1.1,0.1c-0.8,0-1.5-0.2-2-0.5c-0.5-0.3-0.9-0.8-1.2-1.4
	c-0.3-0.6-0.4-1.3-0.4-2.1c0-0.6,0.1-1.1,0.2-1.6c0.2-0.5,0.4-0.9,0.7-1.3c0.3-0.4,0.7-0.6,1.2-0.8c0.5-0.2,1-0.3,1.6-0.3
	c0.4,0,0.8,0,1.1,0.1c0.4,0.1,0.7,0.2,1,0.3l-0.4,0.8c-0.3-0.1-0.5-0.2-0.8-0.3C35.1,75.1,34.8,75,34.4,75z M44.8,78.2
	c0,0.6-0.1,1.2-0.2,1.7c-0.2,0.5-0.4,0.9-0.7,1.3c-0.3,0.4-0.7,0.6-1.1,0.8c-0.4,0.2-1,0.3-1.6,0.3c-0.6,0-1.1-0.1-1.6-0.3
	c-0.5-0.2-0.8-0.5-1.1-0.8c-0.3-0.4-0.5-0.8-0.7-1.3c-0.1-0.5-0.2-1-0.2-1.7c0-0.8,0.1-1.5,0.4-2.1c0.3-0.6,0.7-1.1,1.2-1.4
	c0.5-0.3,1.2-0.5,2-0.5c0.8,0,1.4,0.2,2,0.5c0.5,0.3,0.9,0.8,1.2,1.4C44.7,76.7,44.8,77.4,44.8,78.2z M38.5,78.2
	c0,0.7,0.1,1.2,0.3,1.7c0.2,0.5,0.5,0.9,0.9,1.1c0.4,0.3,0.9,0.4,1.5,0.4c0.6,0,1.1-0.1,1.5-0.4c0.4-0.3,0.7-0.6,0.9-1.1
	c0.2-0.5,0.3-1.1,0.3-1.7c0-1-0.2-1.8-0.6-2.4c-0.4-0.6-1.1-0.9-2-0.9c-0.6,0-1.1,0.1-1.5,0.4c-0.4,0.3-0.7,0.6-0.9,1.1
	C38.6,77,38.5,77.6,38.5,78.2z M52.5,74.3v5.1c0,0.6-0.1,1-0.3,1.5c-0.2,0.4-0.6,0.8-1,1c-0.5,0.2-1,0.4-1.7,0.4
	c-1,0-1.7-0.3-2.2-0.8c-0.5-0.5-0.8-1.2-0.8-2.1v-5.1h0.9v5.1c0,0.7,0.2,1.2,0.5,1.5c0.4,0.4,0.9,0.5,1.6,0.5c0.5,0,0.9-0.1,1.2-0.3
	c0.3-0.2,0.5-0.4,0.7-0.7c0.2-0.3,0.2-0.7,0.2-1.1v-5.1H52.5z M60.7,82.2h-1.1l-4.3-6.6h0c0,0.2,0,0.4,0,0.6c0,0.2,0,0.5,0,0.7
	c0,0.3,0,0.5,0,0.8v4.5h-0.8v-7.9h1l4.3,6.6h0c0-0.1,0-0.3,0-0.5c0-0.2,0-0.5,0-0.7c0-0.3,0-0.5,0-0.7v-4.5h0.9V82.2z M65.3,82.2
	h-0.9v-7h-2.5v-0.8h5.8v0.8h-2.5V82.2z M73.3,80.1c0,0.5-0.1,0.9-0.3,1.2c-0.2,0.3-0.6,0.6-1,0.7c-0.4,0.2-0.9,0.3-1.5,0.3
	c-0.3,0-0.6,0-0.8,0c-0.3,0-0.5-0.1-0.7-0.1s-0.4-0.1-0.6-0.2v-0.9c0.3,0.1,0.6,0.2,1,0.3c0.4,0.1,0.8,0.1,1.2,0.1
	c0.4,0,0.7-0.1,1-0.2c0.3-0.1,0.5-0.3,0.6-0.5c0.1-0.2,0.2-0.4,0.2-0.7c0-0.3-0.1-0.5-0.2-0.7c-0.1-0.2-0.3-0.3-0.6-0.5
	c-0.3-0.2-0.6-0.3-1.1-0.5c-0.3-0.1-0.6-0.2-0.9-0.4c-0.3-0.1-0.5-0.3-0.6-0.5c-0.2-0.2-0.3-0.4-0.4-0.6c-0.1-0.2-0.1-0.5-0.1-0.8
	c0-0.4,0.1-0.8,0.3-1.1c0.2-0.3,0.5-0.5,0.9-0.7c0.4-0.2,0.8-0.2,1.3-0.2c0.4,0,0.8,0,1.2,0.1c0.4,0.1,0.7,0.2,1,0.3l-0.3,0.8
	c-0.3-0.1-0.6-0.2-0.9-0.3c-0.3-0.1-0.6-0.1-1-0.1c-0.3,0-0.6,0.1-0.9,0.2c-0.2,0.1-0.4,0.2-0.5,0.4c-0.1,0.2-0.2,0.4-0.2,0.6
	c0,0.3,0.1,0.5,0.2,0.7c0.1,0.2,0.3,0.3,0.6,0.5c0.3,0.1,0.6,0.3,1,0.4c0.5,0.2,0.9,0.3,1.2,0.5c0.3,0.2,0.6,0.4,0.7,0.7
	C73.3,79.3,73.3,79.7,73.3,80.1z"/>
<path class="st7" d="M14.2,87.8l-1.6,6.4H11l-0.9-3.4c0-0.1,0-0.2-0.1-0.3c0-0.1-0.1-0.3-0.1-0.4c0-0.2-0.1-0.3-0.1-0.4
	c0-0.1,0-0.3,0-0.3c0,0.1,0,0.2-0.1,0.3c0,0.1-0.1,0.3-0.1,0.4c0,0.2-0.1,0.3-0.1,0.4c0,0.1-0.1,0.2-0.1,0.3l-0.9,3.4H7.1l-1.6-6.4
	h1.3l0.8,3.5c0,0.1,0,0.2,0.1,0.4c0,0.1,0.1,0.3,0.1,0.5c0,0.2,0.1,0.3,0.1,0.5c0,0.1,0,0.3,0.1,0.4c0-0.1,0-0.2,0.1-0.4
	c0-0.1,0-0.3,0.1-0.5c0-0.2,0.1-0.3,0.1-0.4c0-0.1,0.1-0.2,0.1-0.3l0.9-3.6h1.3l0.9,3.6c0,0.1,0,0.2,0.1,0.3c0,0.1,0.1,0.3,0.1,0.4
	c0,0.2,0.1,0.3,0.1,0.5c0,0.1,0,0.3,0.1,0.4c0-0.1,0-0.3,0.1-0.5c0-0.2,0.1-0.4,0.1-0.6c0-0.2,0.1-0.4,0.1-0.5l0.8-3.5H14.2z
	 M20.9,91c0,0.5-0.1,0.9-0.2,1.4c-0.1,0.4-0.3,0.8-0.6,1c-0.2,0.3-0.6,0.5-0.9,0.7c-0.4,0.2-0.8,0.2-1.4,0.2c-0.5,0-1-0.1-1.4-0.2
	c-0.4-0.2-0.7-0.4-1-0.7c-0.2-0.3-0.4-0.6-0.6-1.1c-0.1-0.4-0.2-0.9-0.2-1.4c0-0.7,0.1-1.2,0.3-1.7c0.2-0.5,0.6-0.9,1-1.2
	c0.5-0.3,1-0.4,1.7-0.4c0.7,0,1.3,0.1,1.7,0.4c0.5,0.3,0.8,0.7,1,1.2C20.7,89.7,20.9,90.3,20.9,91z M16.2,91c0,0.4,0.1,0.8,0.2,1.2
	c0.1,0.3,0.3,0.6,0.5,0.7c0.2,0.2,0.6,0.3,0.9,0.3c0.4,0,0.7-0.1,0.9-0.3c0.2-0.2,0.4-0.4,0.5-0.7c0.1-0.3,0.2-0.7,0.2-1.2
	c0-0.7-0.1-1.2-0.4-1.6c-0.3-0.4-0.7-0.6-1.2-0.6c-0.4,0-0.7,0.1-0.9,0.3c-0.2,0.2-0.4,0.4-0.5,0.7C16.2,90.1,16.2,90.5,16.2,91z
	 M24.1,87.8c0.6,0,1.1,0.1,1.4,0.2c0.4,0.1,0.7,0.4,0.8,0.6c0.2,0.3,0.3,0.6,0.3,1.1c0,0.3-0.1,0.5-0.2,0.8
	c-0.1,0.2-0.3,0.4-0.4,0.6c-0.2,0.2-0.4,0.3-0.6,0.4l1.9,2.8h-1.5l-1.5-2.5h-0.7v2.5h-1.4v-6.4H24.1z M24,88.9h-0.4v1.7H24
	c0.5,0,0.8-0.1,1-0.2c0.2-0.2,0.3-0.4,0.3-0.7c0-0.3-0.1-0.5-0.3-0.7C24.7,88.9,24.4,88.9,24,88.9z M28.1,94.2v-6.4h1.4v5.3h2.6v1.1
	H28.1z M38.5,90.9c0,0.7-0.1,1.3-0.4,1.8c-0.3,0.5-0.7,0.8-1.2,1.1c-0.5,0.2-1.2,0.4-1.9,0.4h-1.8v-6.4h2c0.7,0,1.3,0.1,1.8,0.4
	c0.5,0.2,0.9,0.6,1.2,1.1C38.4,89.6,38.5,90.2,38.5,90.9z M37.1,90.9c0-0.5-0.1-0.9-0.2-1.2c-0.1-0.3-0.3-0.5-0.6-0.7
	c-0.3-0.1-0.6-0.2-1-0.2h-0.7v4.2h0.6c0.7,0,1.2-0.2,1.5-0.5C37,92.2,37.1,91.6,37.1,90.9z M42.2,87.8h2c0.9,0,1.5,0.1,1.9,0.4
	c0.4,0.2,0.7,0.7,0.7,1.3c0,0.2,0,0.5-0.1,0.7c-0.1,0.2-0.2,0.4-0.3,0.5s-0.3,0.2-0.5,0.2v0c0.2,0,0.4,0.1,0.6,0.2
	c0.2,0.1,0.3,0.3,0.4,0.5c0.1,0.2,0.2,0.5,0.2,0.8c0,0.4-0.1,0.7-0.3,1c-0.2,0.3-0.5,0.5-0.8,0.6c-0.4,0.1-0.8,0.2-1.3,0.2h-2.4
	V87.8z M43.6,90.3h0.8c0.4,0,0.7-0.1,0.8-0.2c0.2-0.1,0.2-0.3,0.2-0.6c0-0.2-0.1-0.4-0.3-0.5c-0.2-0.1-0.5-0.2-0.9-0.2h-0.7V90.3z
	 M43.6,91.4v1.7h0.9c0.4,0,0.7-0.1,0.9-0.2c0.2-0.2,0.2-0.4,0.2-0.6c0-0.2,0-0.3-0.1-0.4c-0.1-0.1-0.2-0.2-0.4-0.3
	c-0.2-0.1-0.4-0.1-0.7-0.1H43.6z M53.5,87.8v4.2c0,0.4-0.1,0.8-0.3,1.2c-0.2,0.4-0.5,0.6-0.9,0.8c-0.4,0.2-0.9,0.3-1.5,0.3
	c-0.8,0-1.5-0.2-1.9-0.6c-0.4-0.4-0.7-1-0.7-1.7v-4.1h1.4v3.9c0,0.5,0.1,0.9,0.3,1.1c0.2,0.2,0.5,0.3,1,0.3c0.3,0,0.5-0.1,0.7-0.2
	c0.2-0.1,0.3-0.3,0.4-0.5c0.1-0.2,0.1-0.5,0.1-0.8v-3.9H53.5z M58.9,92.4c0,0.4-0.1,0.7-0.3,1s-0.5,0.5-0.8,0.7
	c-0.4,0.2-0.8,0.2-1.3,0.2c-0.2,0-0.4,0-0.7,0c-0.2,0-0.4-0.1-0.6-0.1C55,94,54.8,94,54.7,93.9v-1.3c0.3,0.1,0.6,0.3,0.9,0.4
	c0.3,0.1,0.7,0.2,1,0.2c0.2,0,0.4,0,0.5-0.1c0.1-0.1,0.2-0.1,0.3-0.2c0.1-0.1,0.1-0.2,0.1-0.4c0-0.2-0.1-0.3-0.2-0.4
	c-0.1-0.1-0.3-0.2-0.4-0.3c-0.2-0.1-0.4-0.2-0.6-0.3c-0.1-0.1-0.3-0.2-0.5-0.3c-0.2-0.1-0.3-0.2-0.5-0.4c-0.2-0.1-0.3-0.3-0.4-0.5
	c-0.1-0.2-0.1-0.5-0.1-0.8c0-0.4,0.1-0.7,0.3-1c0.2-0.3,0.4-0.5,0.8-0.6c0.3-0.1,0.7-0.2,1.2-0.2c0.3,0,0.7,0,1,0.1
	c0.3,0.1,0.6,0.2,1,0.3l-0.4,1.1c-0.3-0.1-0.6-0.2-0.8-0.3c-0.2-0.1-0.5-0.1-0.7-0.1c-0.2,0-0.3,0-0.4,0.1c-0.1,0.1-0.2,0.1-0.3,0.2
	c-0.1,0.1-0.1,0.2-0.1,0.3c0,0.2,0,0.3,0.1,0.4c0.1,0.1,0.2,0.2,0.4,0.3c0.2,0.1,0.4,0.2,0.7,0.3c0.3,0.2,0.6,0.3,0.8,0.5
	c0.2,0.2,0.4,0.4,0.5,0.6C58.8,91.8,58.9,92.1,58.9,92.4z M60,94.2v-6.4h1.4v6.4H60z M68.7,94.2H67l-2.8-4.9h0c0,0.2,0,0.4,0,0.6
	c0,0.2,0,0.4,0,0.6c0,0.2,0,0.4,0,0.6v3H63v-6.4h1.7l2.8,4.8h0c0-0.2,0-0.4,0-0.6c0-0.2,0-0.4,0-0.6c0-0.2,0-0.4,0-0.6v-3h1.2V94.2z
	 M74,94.2h-3.7v-6.4H74v1.1h-2.3v1.4h2.2v1.1h-2.2v1.7H74V94.2z M79.2,92.4c0,0.4-0.1,0.7-0.3,1c-0.2,0.3-0.5,0.5-0.8,0.7
	c-0.4,0.2-0.8,0.2-1.3,0.2c-0.2,0-0.4,0-0.7,0c-0.2,0-0.4-0.1-0.6-0.1C75.3,94,75.1,94,75,93.9v-1.3c0.3,0.1,0.6,0.3,0.9,0.4
	c0.3,0.1,0.7,0.2,1,0.2c0.2,0,0.4,0,0.5-0.1c0.1-0.1,0.2-0.1,0.3-0.2c0.1-0.1,0.1-0.2,0.1-0.4c0-0.2-0.1-0.3-0.2-0.4
	c-0.1-0.1-0.3-0.2-0.4-0.3c-0.2-0.1-0.4-0.2-0.6-0.3c-0.1-0.1-0.3-0.2-0.5-0.3c-0.2-0.1-0.3-0.2-0.5-0.4c-0.2-0.1-0.3-0.3-0.4-0.5
	C75.1,90,75,89.8,75,89.5c0-0.4,0.1-0.7,0.3-1c0.2-0.3,0.4-0.5,0.8-0.6c0.3-0.1,0.7-0.2,1.2-0.2c0.3,0,0.7,0,1,0.1
	c0.3,0.1,0.6,0.2,1,0.3l-0.4,1.1c-0.3-0.1-0.6-0.2-0.8-0.3c-0.2-0.1-0.5-0.1-0.7-0.1c-0.2,0-0.3,0-0.4,0.1c-0.1,0.1-0.2,0.1-0.3,0.2
	c-0.1,0.1-0.1,0.2-0.1,0.3c0,0.2,0,0.3,0.1,0.4c0.1,0.1,0.2,0.2,0.4,0.3c0.2,0.1,0.4,0.2,0.7,0.3c0.3,0.2,0.6,0.3,0.8,0.5
	c0.2,0.2,0.4,0.4,0.5,0.6C79.1,91.8,79.2,92.1,79.2,92.4z M84.1,92.4c0,0.4-0.1,0.7-0.3,1c-0.2,0.3-0.5,0.5-0.8,0.7
	c-0.4,0.2-0.8,0.2-1.3,0.2c-0.2,0-0.4,0-0.7,0c-0.2,0-0.4-0.1-0.6-0.1c-0.2-0.1-0.4-0.1-0.6-0.2v-1.3c0.3,0.1,0.6,0.3,0.9,0.4
	c0.3,0.1,0.7,0.2,1,0.2c0.2,0,0.4,0,0.5-0.1c0.1-0.1,0.2-0.1,0.3-0.2c0.1-0.1,0.1-0.2,0.1-0.4c0-0.2-0.1-0.3-0.2-0.4
	c-0.1-0.1-0.3-0.2-0.4-0.3c-0.2-0.1-0.4-0.2-0.6-0.3c-0.1-0.1-0.3-0.2-0.5-0.3c-0.2-0.1-0.3-0.2-0.5-0.4c-0.2-0.1-0.3-0.3-0.4-0.5
	C80.1,90,80,89.8,80,89.5c0-0.4,0.1-0.7,0.3-1c0.2-0.3,0.4-0.5,0.8-0.6c0.3-0.1,0.7-0.2,1.2-0.2c0.3,0,0.7,0,1,0.1
	c0.3,0.1,0.6,0.2,1,0.3l-0.4,1.1c-0.3-0.1-0.6-0.2-0.8-0.3c-0.2-0.1-0.5-0.1-0.7-0.1c-0.2,0-0.3,0-0.4,0.1c-0.1,0.1-0.2,0.1-0.3,0.2
	c-0.1,0.1-0.1,0.2-0.1,0.3c0,0.2,0,0.3,0.1,0.4c0.1,0.1,0.2,0.2,0.4,0.3c0.2,0.1,0.4,0.2,0.7,0.3c0.3,0.2,0.6,0.3,0.8,0.5
	c0.2,0.2,0.4,0.4,0.5,0.6C84.1,91.8,84.1,92.1,84.1,92.4z M29.3,101c0,0.5-0.1,0.9-0.2,1.4c-0.1,0.4-0.3,0.8-0.6,1
	c-0.2,0.3-0.6,0.5-0.9,0.7c-0.4,0.2-0.8,0.2-1.4,0.2c-0.5,0-1-0.1-1.4-0.2c-0.4-0.2-0.7-0.4-1-0.7c-0.2-0.3-0.4-0.6-0.6-1.1
	c-0.1-0.4-0.2-0.9-0.2-1.4c0-0.7,0.1-1.2,0.3-1.7c0.2-0.5,0.6-0.9,1-1.2c0.5-0.3,1-0.4,1.7-0.4c0.7,0,1.3,0.1,1.7,0.4
	c0.5,0.3,0.8,0.7,1,1.2C29.2,99.7,29.3,100.3,29.3,101z M24.7,101c0,0.4,0.1,0.8,0.2,1.2c0.1,0.3,0.3,0.6,0.5,0.7
	c0.2,0.2,0.6,0.3,0.9,0.3c0.4,0,0.7-0.1,0.9-0.3c0.2-0.2,0.4-0.4,0.5-0.7c0.1-0.3,0.2-0.7,0.2-1.2c0-0.7-0.1-1.2-0.4-1.6
	c-0.3-0.4-0.7-0.6-1.2-0.6c-0.4,0-0.7,0.1-0.9,0.3c-0.2,0.2-0.4,0.4-0.5,0.7C24.7,100.1,24.7,100.5,24.7,101z M35.9,97.8v4.2
	c0,0.4-0.1,0.8-0.3,1.2c-0.2,0.4-0.5,0.6-0.9,0.8c-0.4,0.2-0.9,0.3-1.5,0.3c-0.8,0-1.5-0.2-1.9-0.6c-0.4-0.4-0.7-1-0.7-1.7v-4.1H32
	v3.9c0,0.5,0.1,0.9,0.3,1.1c0.2,0.2,0.5,0.3,1,0.3c0.3,0,0.5-0.1,0.7-0.2c0.2-0.1,0.3-0.3,0.4-0.5c0.1-0.2,0.1-0.5,0.1-0.8v-3.9
	H35.9z M40,104.2h-1.4v-5.3h-1.7v-1.1h4.9v1.1H40V104.2z M42.7,104.2v-6.4h1.4v5.3h2.6v1.1H42.7z M53.6,101c0,0.5-0.1,0.9-0.2,1.4
	c-0.1,0.4-0.3,0.8-0.6,1c-0.2,0.3-0.6,0.5-0.9,0.7c-0.4,0.2-0.8,0.2-1.4,0.2s-1-0.1-1.4-0.2c-0.4-0.2-0.7-0.4-1-0.7
	c-0.2-0.3-0.4-0.6-0.6-1.1c-0.1-0.4-0.2-0.9-0.2-1.4c0-0.7,0.1-1.2,0.3-1.7c0.2-0.5,0.6-0.9,1-1.2c0.5-0.3,1-0.4,1.7-0.4
	c0.7,0,1.3,0.1,1.7,0.4c0.5,0.3,0.8,0.7,1,1.2C53.5,99.7,53.6,100.3,53.6,101z M48.9,101c0,0.4,0.1,0.8,0.2,1.2
	c0.1,0.3,0.3,0.6,0.5,0.7c0.2,0.2,0.6,0.3,0.9,0.3c0.4,0,0.7-0.1,0.9-0.3c0.2-0.2,0.4-0.4,0.5-0.7c0.1-0.3,0.2-0.7,0.2-1.2
	c0-0.7-0.1-1.2-0.4-1.6c-0.3-0.4-0.7-0.6-1.2-0.6c-0.4,0-0.7,0.1-0.9,0.3c-0.2,0.2-0.4,0.4-0.5,0.7C49,100.1,48.9,100.5,48.9,101z
	 M60.8,101c0,0.5-0.1,0.9-0.2,1.4c-0.1,0.4-0.3,0.8-0.6,1c-0.2,0.3-0.6,0.5-0.9,0.7c-0.4,0.2-0.8,0.2-1.4,0.2c-0.5,0-1-0.1-1.4-0.2
	c-0.4-0.2-0.7-0.4-1-0.7c-0.2-0.3-0.4-0.6-0.6-1.1c-0.1-0.4-0.2-0.9-0.2-1.4c0-0.7,0.1-1.2,0.3-1.7c0.2-0.5,0.6-0.9,1-1.2
	c0.5-0.3,1-0.4,1.7-0.4c0.7,0,1.3,0.1,1.7,0.4c0.5,0.3,0.8,0.7,1,1.2C60.7,99.7,60.8,100.3,60.8,101z M56.1,101
	c0,0.4,0.1,0.8,0.2,1.2c0.1,0.3,0.3,0.6,0.5,0.7c0.2,0.2,0.6,0.3,0.9,0.3c0.4,0,0.7-0.1,0.9-0.3c0.2-0.2,0.4-0.4,0.5-0.7
	c0.1-0.3,0.2-0.7,0.2-1.2c0-0.7-0.1-1.2-0.4-1.6c-0.3-0.4-0.7-0.6-1.2-0.6c-0.4,0-0.7,0.1-0.9,0.3c-0.2,0.2-0.4,0.4-0.5,0.7
	C56.1,100.1,56.1,100.5,56.1,101z M67.3,104.2h-1.5l-1.7-2.7l-0.6,0.4v2.3h-1.4v-6.4h1.4v2.9c0.1-0.1,0.2-0.3,0.3-0.4
	s0.2-0.3,0.3-0.4l1.7-2.2h1.5l-2.2,2.8L67.3,104.2z"/>
</svg>
